<svg id="Layer_2" data-name="Layer 2" xmlns="http://www.w3.org/2000/svg" viewBox="0 0 3126.94 2803.64"><g id="Layer_1-2" data-name="Layer 1"><g><path d="M2996.45 1872.39c-75.29 5.5-150.71-3.24-223.97-20.73-74.64-17.82-146.95-44.13-218.17-72.43-72.18-28.69-143.46-59.61-216.05-87.24-73.28-27.89-148.65-54.05-226.45-65.72-76.74-11.52-157.84-7.06-226.76 31.55-8.03 4.5-15.8 9.42-23.34 14.69 2.19-1.54 4.38-3.08 6.57-4.61-30.86 21.85-57.08 50.13-73.95 84.15 2.38-4.79 4.75-9.59 7.13-14.38-3.92 8.07-7.29 16.36-10.08 24.89 2.43-7.58 4.86-15.17 7.3-22.75-.88 2.78-1.72 5.58-2.48 8.39-4.75 17.61 8-35.28 4.66-19.61-2.54 13.99-6.11 27.69-10.73 41.1-2.3 9.11-5.89 17.69-10.77 25.76-3.71 5.85-6.78 6.39-9.23 1.6-5.01-4.72-7.07-10.94-6.2-18.66-4.08-29.56-2.12-60.73.34-90.24 3.19-38.39 7.89-76.81 15.92-114.5 9.01-42.31 20.77-83.71 42.41-121.4 10.42-18.14 23.66-34.58 38.77-49.03 32.4-30.97 72.96-54.49 115.9-67.28 87.83-26.15 182.49-10.24 268.62 14.68 85.75 24.81 168.48 58.88 250.91 92.83 81.55 33.59 163.19 67.59 247.72 93.11 82.68 24.96 168.52 41.42 255.18 39.5 10.76-.24 21.51-.77 32.25-1.55 4.71 3.42 7.07 8.03 7.08 13.85 2.75 10.32 3.92 20.87 3.52 31.65.48 16.19.12 32.35-1.09 48.49-.81 19.27-2.45 38.47-4.91 57.62-4.4 34.97-9.03 70.69-19.09 104.54-2.43 7.58-4.86 15.17-7.3 22.75-1.56 8.91-6.13 15.24-13.7 18.99h0z"/><path d="M2959.98 1468.84c-69.34 29.86-143.46 46.29-218.41 53.75-76.36 7.61-153.3 6.42-229.86 3-77.59-3.47-155.07-9.35-232.71-11.68-78.37-2.36-158.15-2.39-235.49 12.05-76.28 14.25-151.45 45.01-203.93 104.06-6.11 6.88-11.85 14.07-17.25 21.52 1.57-2.17 3.13-4.34 4.7-6.51-22 30.75-37.52 66.06-42.32 103.72.67-5.31 1.35-10.61 2.02-15.92-1.06 8.91-1.53 17.85-1.38 26.82l-.56-23.89c.08 2.92.2 5.83.4 8.74 1.28 18.2-3.99-35.95-2.01-20.05 2.19 14.05 3.29 28.17 3.32 42.35.81 9.36.23 18.65-1.75 27.86-1.59 6.75-4.32 8.26-8.19 4.53-6.28-2.82-10.27-8.02-11.97-15.61-13.53-26.6-21.89-56.69-29.23-85.37-9.55-37.32-17.69-75.16-22.45-113.41-5.34-42.93-7.79-85.89.32-128.6 3.9-20.55 11.03-40.42 20.58-59.02 20.47-39.87 51.09-75.38 87.48-101.52 74.43-53.47 169.07-69.43 258.62-74.09 89.14-4.64 178.47.46 267.48 5.55 88.06 5.04 176.33 10.43 264.55 6.86 86.3-3.48 172.79-16.05 254.05-46.24 10.09-3.75 20.07-7.77 29.96-12.03 5.57 1.68 9.31 5.27 11.23 10.77 5.97 8.85 10.54 18.43 13.69 28.76 5.75 15.14 10.7 30.53 14.85 46.17 5.54 18.47 10.29 37.15 14.23 56.05 7.29 34.48 14.62 69.75 16.2 105.03l.56 23.89c1.44 8.93-.8 16.41-6.72 22.43h0z"/></g><path d="M3103.33 1270.39c13.53-31.08 27.57-64.99 22.59-99.64-3.42-23.81-12.76-46.03-26.62-65.58-14.48-20.42-32.76-37.99-52.02-53.86-22.67-18.67-47.07-35.18-72-50.66-27.74-17.23-56.25-33.19-84.99-48.68-29.78-16.06-59.84-31.6-89.83-47.27-29.39-15.36-58.74-30.82-87.65-47.08-26.61-14.98-52.91-30.61-78.09-47.9-21.74-14.93-42.86-31.11-61.39-49.95-15-15.26-28.61-32.6-36.73-52.56-1.78-4.38-3.27-8.87-4.45-13.45l1.98 7.78c-3.76-14.92-3.73-30.38.0-45.3-1.32 5.18-2.64 10.37-3.96 15.55 1.34-5.26 3.1-10.39 5.19-15.4-3.09 7.34-6.18 14.68-9.28 22.02 1.24-2.93 2.59-5.81 4.04-8.64-4.66 9.06-9.32 18.12-13.98 27.18.19-.36.38-.73.57-1.09 7.19-12.27 13.39-25 18.62-38.18 4.19-8.41 7.05-17.26 8.59-26.56 1-6.86-.99-9.26-5.96-7.22-6.87.32-12.49 3.7-16.86 10.13-22.34 19.78-41.15 44.71-58.5 68.71-22.5 31.12-44.67 63.21-62.47 97.27-15.77 30.17-30.62 59.87-37.81 93.29-2.04 9.5-2.61 19.29-1.55 28.95 2.44 22.39 11.29 43.6 24.32 61.81 14 19.56 31.85 36.19 50.53 51.19 22.57 18.12 46.84 34.07 71.55 49.08 27.74 16.85 56.2 32.49 84.83 47.77 29.93 15.97 60.09 31.51 90.13 47.27 29.67 15.57 59.25 31.33 88.32 48 27.11 15.55 53.85 31.88 79.34 49.98 22.12 15.7 43.5 32.79 62.17 52.54 15.64 16.55 29.59 35.28 38 56.59 1.86 4.72 3.43 9.55 4.69 14.47-.66-2.59-1.32-5.19-1.98-7.78 4.37 17.45 4.26 35.53-.09 52.97 1.32-5.18 2.64-10.37 3.96-15.55-1.62 6.35-3.74 12.54-6.27 18.58 3.09-7.34 6.18-14.68 9.28-22.02-.25.59-.5 1.18-.76 1.77-5.26 9.42-9.01 19.36-11.25 29.79-2.64 5.19-2.64 10.37.0 15.56 5.8.48 10.6-1.49 14.39-5.9 8.8-6.04 16.56-13.28 23.28-21.73 23.74-26.22 45.06-54.96 64.53-84.43 7.18-11.19 14.36-22.38 21.54-33.57 11.7-18.85 22.38-38.25 32.05-58.2h0z"/><g><path d="M956.62 846.99c1.14-2.66 2.28-5.31 3.44-7.96 2.32-4.92 4.67-9.83 7.05-14.73 1.88-3.58 3.78-7.15 5.69-10.71 1.85-3.46 3.72-6.91 5.61-10.35.95-1.73 1.9-3.46 2.86-5.19.94-1.71 1.38-2.52 1.43-2.63-.15.25-1.64 2.91-3.71 6.61 14.4-26.27 28.12-52.89 39.74-80.57 5.9-12.93 10.78-26.23 14.64-39.87 3.31-8.8 5.26-17.9 5.85-27.3-.93-2.52-1.85-5.03-2.77-7.54-8.42.75-14.96 5-19.64 12.75-20.14 21.86-36.78 48.59-51.22 74.3-73.95 131.75-139.38 268.73-180.12 414.66-24.2 86.67-37.73 177.71-35.72 267.8 1.1 48.85 7.18 97.1 18.03 144.36 7.73-13.07 15.41-26.08 23.01-38.98 39.91-67.69 80.76-136.97 124.58-204.53-15.69-66.08-21.66-134.34-18.68-202.33 1.14-26.04 3.59-52 7.14-77.82.0-.03.01-.07.02-.1 3.19-20.18 7.05-40.25 11.57-60.17 2.61-11.53 5.44-23 8.48-34.42 1.58-5.96 3.22-11.89 4.92-17.82.51-1.81 1.03-3.62 1.56-5.42 5.89-18.39 12.22-36.61 18.99-54.69 2.38-5.8 4.79-11.59 7.25-17.35zm12.44-26.68c.52-1.06 1.04-2.11 1.56-3.16.21-.36.42-.73.62-1.1-.68 1.32-1.4 2.74-2.18 4.26zm5.12-10.29c2.33-4.68 4.93-9.7 5.13-10-.12.33-2.09 4.27-7.5 14.89-.02.05-.05.1-.08.15-.2.35-.4.7-.59 1.05 1.01-2.04 2.02-4.06 3.04-6.09z"/><path d="M3037.37 1627.08c-5.43 29.04-20.46 57.39-32.96 84-16.21 34.55-35.34 69.06-56.26 100.99-7.43 12.13-15.72 23.61-24.88 34.44-5.43 7.66-11.89 14.37-19.36 20.12-36.43 17.81-73.12 35.09-110.09 51.74-139.09 62.65-282.19 116.77-428.8 159.06-128.76 37.13-260.28 65.68-393.4 81.58-114.65 13.7-230.62 18.11-345.85 9.8-100.17-7.23-199.92-24.11-296.01-53.63-84.46-25.96-166.15-61.79-240.77-109.28-57.58-36.65-110.81-80.28-156.92-130.6 62.02-75.18 111.6-159.83 159.69-241.98.38-.65.76-1.29 1.14-1.94 63.66 64.16 138.92 116.12 219.74 156.31 93.61 46.56 194.5 77.57 297.17 96.45 120.01 22.07 242.74 27.75 364.49 21.74 141.36-6.98 281.65-29.8 419.03-63.45 43.43-10.82 86.59-22.71 129.44-35.63 174.14-52.5 343.07-121.36 506.39-201.21 15.53-7.6 9.65 13.78 8.21 21.49z"/></g><path d="M2266.89 264.88c36.64 26.77 73.43 53.34 109.88 80.38 31.45 23.33 62.49 47.74 88.95 76.76 14.93 16.37 28.19 34.19 38.97 53.56 4.7 8.45 38.68-36.63 34.67-31.32 9.63-13.02 18.55-26.5 26.77-40.44 10.33-16.29 19.94-32.99 28.84-50.12 16.34-31.23 32.92-63.21 43.98-96.74l6.99-22.85c3.8-8.21 3.67-16.01-.41-23.41-39.4-70.83-109.64-117.04-173.49-163.7-21.44-15.67-42.87-31.33-64.31-47-5.82.12-10.39 2.56-13.72 7.34-8.14 6.9-15.13 14.9-20.95 23.99-9.63 13.02-18.55 26.5-26.77 40.44-10.33 16.29-19.94 32.99-28.84 50.12-16.34 31.23-32.92 63.21-43.98 96.74-2.33 7.62-4.66 15.23-6.99 22.85-3.8 8.21-3.67 16.01.41 23.41h0z"/><path d="M2051.89 2591.88c36.64 26.77 73.43 53.34 109.88 80.38 31.45 23.33 62.49 47.74 88.95 76.76 14.93 16.37 28.19 34.19 38.97 53.56 4.7 8.45 38.68-36.63 34.67-31.32 9.63-13.02 18.55-26.5 26.77-40.44 10.33-16.29 19.94-32.99 28.84-50.12 16.34-31.23 32.92-63.21 43.98-96.74l6.99-22.85c3.8-8.21 3.67-16.01-.41-23.41-39.4-70.83-109.64-117.04-173.49-163.7-21.44-15.67-42.87-31.33-64.31-47-5.82.12-10.39 2.56-13.72 7.34-8.14 6.9-15.13 14.9-20.95 23.99-9.63 13.02-18.55 26.5-26.77 40.44-10.33 16.29-19.94 32.99-28.84 50.12-16.34 31.23-32.92 63.21-43.98 96.74l-6.99 22.85c-3.8 8.21-3.67 16.01.41 23.41h0z"/><path d="M2097.63 813.01c0 22.78-5.28 43.67-15.81 62.66-13.08 22.58-30.16 33.86-51.23 33.86-8.44.0-22.36-5.34-41.75-16.03-14.33 36.03-36.23 54.03-65.72 54.03-32.86.0-49.28-18.47-49.28-55.44.0-11.38 1.25-26.34 3.77-44.91l18.23-12.02c3.78 32.91 14.94 49.36 33.45 49.36 22.72.0 41.23-28.05 55.55-84.17l14.11-3.8c11.11 30.81 23.52 46.2 37.2 46.2s25-9.91 32.7-29.75c5.98-14.75 8.98-30.58 8.98-47.45l16-5.7c2.53 15.62 3.8 33.34 3.8 53.16zm-3.8-115.45c-4.64 25.75-14.97 41.78-30.98 48.09l-186.5 73.41c10.11-28.69 28.23-48.09 54.38-58.22l163.11-63.28z"/><path d="M1651.93 928.61c-3.31-6.03-8.82-9.59-16.51-10.69-12.19-4.78-24.67-8.6-37.43-11.47-16.47-4.49-33.13-8.12-50-10.88-37.9-6.54-76.36-11.99-114.83-13.36-10.19-.2-20.37-.41-30.56-.61-13.44-.43-26.63 1.11-39.56 4.63-150.46 85.4-270.54 213.75-370.59 353.15-101.13 140.89-182.31 293.95-273.58 441.07-18.46 29.75-37.68 59.28-58.19 87.87-19.73 27.51-40.64 54.16-63.2 79.31-.01.01-.02.02-.03.03-71.34 68.84-207.18 155.42-428.4 141.32C89.47 1975.83-1.91 1960.5.03 1961.19c.29.13.58.26.88.38 51.67 22.75 107.48 42.31 164.87 58.17 164.17 45.36 341.28 60.39 471.49 32.75.06-.02.11-.04.16-.04 50.27-10.7 93.54-27.75 126.37-51.89 49.24-30.4 92.98-69.94 131.43-113.01 76.65-85.87 133.68-186.72 191.68-285.5 57.3-97.61 114.8-195.26 179.1-288.49 63.08-91.46 132.96-178.96 214.91-254.33 9.25-8.5 18.64-16.83 28.18-24.99.02-.03.04-.04.06-.05 43.35-36.4 89.65-69.1 138.9-97.05 6.6-2.12 7.89-4.96 3.87-8.53z"/></g></svg>