<svg xmlns="http://www.w3.org/2000/svg" width="960" height="540"><path fill="#020206" d="M0 0h960v540H0z"/><path d="m0 314 137 60 137-10 137-17 138 48 137-13 137 9 137 11v139H0Z"/><path fill="#6d0000" d="m0 365 137 61 137-70 137 33 138-20 137 5 137 4 137 12v151H0Z"/><path fill="#9d0000" d="m0 432 137 14 137 5 137-5 138-17h137l137 26 137-59v145H0Z"/><path fill="#c60707" d="m0 464 137-20 137 17 137-1 138 10 137-32 137 9 137-2v96H0Z"/><path fill="#f01010" d="m0 479 137 6 137 2 137 15 138-26 137 24 137 12 137-27v56H0Z"/></svg>