<svg id="visual" viewBox="0 0 900 600" width="900" height="600" xmlns="http://www.w3.org/2000/svg" xmlns:xlink="http://www.w3.org/1999/xlink" version="1.1"><path d="M0 573L16.7 570.8C33.3 568.7 66.7 564.3 100 564.3C133.3 564.3 166.7 568.7 200 572.2C233.3 575.7 266.7 578.3 300 576.2C333.3 574 366.7 567 400 566.8C433.3 566.7 466.7 573.3 500 575.5C533.3 577.7 566.7 575.3 600 573.3C633.3 571.3 666.7 569.7 700 567.3C733.3 565 766.7 562 800 563.5C833.3 565 866.7 571 883.3 574L900 577L900 601L883.3 601C866.7 601 833.3 601 800 601C766.7 601 733.3 601 700 601C666.7 601 633.3 601 600 601C566.7 601 533.3 601 500 601C466.7 601 433.3 601 400 601C366.7 601 333.3 601 300 601C266.7 601 233.3 601 200 601C166.7 601 133.3 601 100 601C66.7 601 33.3 601 16.7 601L0 601Z" fill="#5e5e5e" stroke-linecap="round" stroke-linejoin="miter"></path></svg>