<svg id="visual" viewBox="0 0 900 600" width="900" height="600" xmlns="http://www.w3.org/2000/svg" xmlns:xlink="http://www.w3.org/1999/xlink" version="1.1"><path d="M0 556L7.8 557.2C15.7 558.3 31.3 560.7 47.2 561C63 561.3 79 559.7 94.8 558.8C110.7 558 126.3 558 142 558C157.7 558 173.3 558 189.2 558.2C205 558.3 221 558.7 236.8 558.3C252.7 558 268.3 557 284.2 556.3C300 555.7 316 555.3 331.8 555.7C347.7 556 363.3 557 379 558C394.7 559 410.3 560 426.2 559.7C442 559.3 458 557.7 473.8 557.8C489.7 558 505.3 560 521 560C536.7 560 552.3 558 568.2 557.7C584 557.3 600 558.7 615.8 559.7C631.7 560.7 647.3 561.3 663.2 560.5C679 559.7 695 557.3 710.8 556.5C726.7 555.7 742.3 556.3 758 557.5C773.7 558.7 789.3 560.3 805.2 560.3C821 560.3 837 558.7 852.8 557.7C868.7 556.7 884.3 556.3 892.2 556.2L900 556L900 601L892.2 601C884.3 601 868.7 601 852.8 601C837 601 821 601 805.2 601C789.3 601 773.7 601 758 601C742.3 601 726.7 601 710.8 601C695 601 679 601 663.2 601C647.3 601 631.7 601 615.8 601C600 601 584 601 568.2 601C552.3 601 536.7 601 521 601C505.3 601 489.7 601 473.8 601C458 601 442 601 426.2 601C410.3 601 394.7 601 379 601C363.3 601 347.7 601 331.8 601C316 601 300 601 284.2 601C268.3 601 252.7 601 236.8 601C221 601 205 601 189.2 601C173.3 601 157.7 601 142 601C126.3 601 110.7 601 94.8 601C79 601 63 601 47.2 601C31.3 601 15.7 601 7.8 601L0 601Z" fill="#4b8beb"></path><path d="M0 564L7.8 563.7C15.7 563.3 31.3 562.7 47.2 562.8C63 563 79 564 94.8 563.5C110.7 563 126.3 561 142 560.2C157.7 559.3 173.3 559.7 189.2 560.7C205 561.7 221 563.3 236.8 563.5C252.7 563.7 268.3 562.3 284.2 561.8C300 561.3 316 561.7 331.8 562C347.7 562.3 363.3 562.7 379 562.3C394.7 562 410.3 561 426.2 561.3C442 561.7 458 563.3 473.8 563.3C489.7 563.3 505.3 561.7 521 561.2C536.7 560.7 552.3 561.3 568.2 561.8C584 562.3 600 562.7 615.8 563C631.7 563.3 647.3 563.7 663.2 563.5C679 563.3 695 562.7 710.8 562.2C726.7 561.7 742.3 561.3 758 561.2C773.7 561 789.3 561 805.2 561.7C821 562.3 837 563.7 852.8 563.8C868.7 564 884.3 563 892.2 562.5L900 562L900 601L892.2 601C884.3 601 868.7 601 852.8 601C837 601 821 601 805.2 601C789.3 601 773.7 601 758 601C742.3 601 726.7 601 710.8 601C695 601 679 601 663.2 601C647.3 601 631.7 601 615.8 601C600 601 584 601 568.2 601C552.3 601 536.7 601 521 601C505.3 601 489.7 601 473.8 601C458 601 442 601 426.2 601C410.3 601 394.7 601 379 601C363.3 601 347.7 601 331.8 601C316 601 300 601 284.2 601C268.3 601 252.7 601 236.8 601C221 601 205 601 189.2 601C173.3 601 157.7 601 142 601C126.3 601 110.7 601 94.8 601C79 601 63 601 47.2 601C31.3 601 15.7 601 7.8 601L0 601Z" fill="#4588ed"></path><path d="M0 563L7.8 563.2C15.7 563.3 31.3 563.7 47.2 564.5C63 565.3 79 566.7 94.8 567.3C110.7 568 126.3 568 142 567.2C157.7 566.3 173.3 564.7 189.2 564.2C205 563.7 221 564.3 236.8 565C252.7 565.7 268.3 566.3 284.2 566.2C300 566 316 565 331.8 564.5C347.7 564 363.3 564 379 564.3C394.7 564.7 410.3 565.3 426.2 565.3C442 565.3 458 564.7 473.8 564.8C489.7 565 505.3 566 521 565.8C536.7 565.7 552.3 564.3 568.2 563.7C584 563 600 563 615.8 563.5C631.7 564 647.3 565 663.2 565.8C679 566.7 695 567.3 710.8 567.2C726.7 567 742.3 566 758 566C773.7 566 789.3 567 805.2 567C821 567 837 566 852.8 565.3C868.7 564.7 884.3 564.3 892.2 564.2L900 564L900 601L892.2 601C884.3 601 868.7 601 852.8 601C837 601 821 601 805.2 601C789.3 601 773.7 601 758 601C742.3 601 726.7 601 710.8 601C695 601 679 601 663.2 601C647.3 601 631.7 601 615.8 601C600 601 584 601 568.2 601C552.3 601 536.7 601 521 601C505.3 601 489.7 601 473.8 601C458 601 442 601 426.2 601C410.3 601 394.7 601 379 601C363.3 601 347.7 601 331.8 601C316 601 300 601 284.2 601C268.3 601 252.7 601 236.8 601C221 601 205 601 189.2 601C173.3 601 157.7 601 142 601C126.3 601 110.7 601 94.8 601C79 601 63 601 47.2 601C31.3 601 15.7 601 7.8 601L0 601Z" fill="#3f85ef"></path><path d="M0 567L7.8 567.7C15.7 568.3 31.3 569.7 47.2 569.7C63 569.7 79 568.3 94.8 567.7C110.7 567 126.3 567 142 567.3C157.7 567.7 173.3 568.3 189.2 568.3C205 568.3 221 567.7 236.8 568C252.7 568.3 268.3 569.7 284.2 570.2C300 570.7 316 570.3 331.8 570.2C347.7 570 363.3 570 379 569.7C394.7 569.3 410.3 568.7 426.2 568C442 567.3 458 566.7 473.8 566.8C489.7 567 505.3 568 521 568C536.7 568 552.3 567 568.2 567.3C584 567.7 600 569.3 615.8 569.7C631.7 570 647.3 569 663.2 568.2C679 567.3 695 566.7 710.8 566.7C726.7 566.7 742.3 567.3 758 567.8C773.7 568.3 789.3 568.7 805.2 569.2C821 569.7 837 570.3 852.8 570.3C868.7 570.3 884.3 569.7 892.2 569.3L900 569L900 601L892.2 601C884.3 601 868.7 601 852.8 601C837 601 821 601 805.2 601C789.3 601 773.7 601 758 601C742.3 601 726.7 601 710.8 601C695 601 679 601 663.2 601C647.3 601 631.7 601 615.8 601C600 601 584 601 568.2 601C552.3 601 536.7 601 521 601C505.3 601 489.7 601 473.8 601C458 601 442 601 426.2 601C410.3 601 394.7 601 379 601C363.3 601 347.7 601 331.8 601C316 601 300 601 284.2 601C268.3 601 252.7 601 236.8 601C221 601 205 601 189.2 601C173.3 601 157.7 601 142 601C126.3 601 110.7 601 94.8 601C79 601 63 601 47.2 601C31.3 601 15.7 601 7.8 601L0 601Z" fill="#3881f0"></path><path d="M0 575L7.8 574.8C15.7 574.7 31.3 574.3 47.2 573.5C63 572.7 79 571.3 94.8 570.5C110.7 569.7 126.3 569.3 142 570C157.7 570.7 173.3 572.3 189.2 572.5C205 572.7 221 571.3 236.8 571.3C252.7 571.3 268.3 572.7 284.2 572.7C300 572.7 316 571.3 331.8 571.2C347.7 571 363.3 572 379 572.2C394.7 572.3 410.3 571.7 426.2 571.7C442 571.7 458 572.3 473.8 572.3C489.7 572.3 505.3 571.7 521 571.3C536.7 571 552.3 571 568.2 571.2C584 571.3 600 571.7 615.8 572C631.7 572.3 647.3 572.7 663.2 572.3C679 572 695 571 710.8 571C726.7 571 742.3 572 758 572.7C773.7 573.3 789.3 573.7 805.2 573.5C821 573.3 837 572.7 852.8 572.5C868.7 572.3 884.3 572.7 892.2 572.8L900 573L900 601L892.2 601C884.3 601 868.7 601 852.8 601C837 601 821 601 805.2 601C789.3 601 773.7 601 758 601C742.3 601 726.7 601 710.8 601C695 601 679 601 663.2 601C647.3 601 631.7 601 615.8 601C600 601 584 601 568.2 601C552.3 601 536.7 601 521 601C505.3 601 489.7 601 473.8 601C458 601 442 601 426.2 601C410.3 601 394.7 601 379 601C363.3 601 347.7 601 331.8 601C316 601 300 601 284.2 601C268.3 601 252.7 601 236.8 601C221 601 205 601 189.2 601C173.3 601 157.7 601 142 601C126.3 601 110.7 601 94.8 601C79 601 63 601 47.2 601C31.3 601 15.7 601 7.8 601L0 601Z" fill="#327ef2"></path><path d="M0 573L7.8 573.2C15.7 573.3 31.3 573.7 47.2 574.3C63 575 79 576 94.8 576.2C110.7 576.3 126.3 575.7 142 575.3C157.7 575 173.3 575 189.2 574.7C205 574.3 221 573.7 236.8 573.8C252.7 574 268.3 575 284.2 575C300 575 316 574 331.8 574.2C347.7 574.3 363.3 575.7 379 576C394.7 576.3 410.3 575.7 426.2 575.7C442 575.7 458 576.3 473.8 576.7C489.7 577 505.3 577 521 576.8C536.7 576.7 552.3 576.3 568.2 575.7C584 575 600 574 615.8 573.5C631.7 573 647.3 573 663.2 573.3C679 573.7 695 574.3 710.8 574.3C726.7 574.3 742.3 573.7 758 573.5C773.7 573.3 789.3 573.7 805.2 574.3C821 575 837 576 852.8 575.8C868.7 575.7 884.3 574.3 892.2 573.7L900 573L900 601L892.2 601C884.3 601 868.7 601 852.8 601C837 601 821 601 805.2 601C789.3 601 773.7 601 758 601C742.3 601 726.7 601 710.8 601C695 601 679 601 663.2 601C647.3 601 631.7 601 615.8 601C600 601 584 601 568.2 601C552.3 601 536.7 601 521 601C505.3 601 489.7 601 473.8 601C458 601 442 601 426.2 601C410.3 601 394.7 601 379 601C363.3 601 347.7 601 331.8 601C316 601 300 601 284.2 601C268.3 601 252.7 601 236.8 601C221 601 205 601 189.2 601C173.3 601 157.7 601 142 601C126.3 601 110.7 601 94.8 601C79 601 63 601 47.2 601C31.3 601 15.7 601 7.8 601L0 601Z" fill="#2b7bf3"></path><path d="M0 578L7.8 577.7C15.7 577.3 31.3 576.7 47.2 576.7C63 576.7 79 577.3 94.8 578C110.7 578.7 126.3 579.3 142 579.2C157.7 579 173.3 578 189.2 577.7C205 577.3 221 577.7 236.8 577.7C252.7 577.7 268.3 577.3 284.2 577.7C300 578 316 579 331.8 579.3C347.7 579.7 363.3 579.3 379 579C394.7 578.7 410.3 578.3 426.2 578.5C442 578.7 458 579.3 473.8 579.5C489.7 579.7 505.3 579.3 521 578.7C536.7 578 552.3 577 568.2 576.7C584 576.3 600 576.7 615.8 577.3C631.7 578 647.3 579 663.2 579C679 579 695 578 710.8 577.8C726.7 577.7 742.3 578.3 758 578.3C773.7 578.3 789.3 577.7 805.2 577.5C821 577.3 837 577.7 852.8 578.2C868.7 578.7 884.3 579.3 892.2 579.7L900 580L900 601L892.2 601C884.3 601 868.7 601 852.8 601C837 601 821 601 805.2 601C789.3 601 773.7 601 758 601C742.3 601 726.7 601 710.8 601C695 601 679 601 663.2 601C647.3 601 631.7 601 615.8 601C600 601 584 601 568.2 601C552.3 601 536.7 601 521 601C505.3 601 489.7 601 473.8 601C458 601 442 601 426.2 601C410.3 601 394.7 601 379 601C363.3 601 347.7 601 331.8 601C316 601 300 601 284.2 601C268.3 601 252.7 601 236.8 601C221 601 205 601 189.2 601C173.3 601 157.7 601 142 601C126.3 601 110.7 601 94.8 601C79 601 63 601 47.2 601C31.3 601 15.7 601 7.8 601L0 601Z" fill="#2577f5"></path><path d="M0 583L7.8 583C15.7 583 31.3 583 47.2 582.7C63 582.3 79 581.7 94.8 581.5C110.7 581.3 126.3 581.7 142 581.7C157.7 581.7 173.3 581.3 189.2 581C205 580.7 221 580.3 236.8 580.2C252.7 580 268.3 580 284.2 580.3C300 580.7 316 581.3 331.8 581.5C347.7 581.7 363.3 581.3 379 581.3C394.7 581.3 410.3 581.7 426.2 581.8C442 582 458 582 473.8 581.7C489.7 581.3 505.3 580.7 521 580.5C536.7 580.3 552.3 580.7 568.2 580.7C584 580.7 600 580.3 615.8 580.7C631.7 581 647.3 582 663.2 582.3C679 582.7 695 582.3 710.8 582C726.7 581.7 742.3 581.3 758 581.5C773.7 581.7 789.3 582.3 805.2 582.5C821 582.7 837 582.3 852.8 582C868.7 581.7 884.3 581.3 892.2 581.2L900 581L900 601L892.2 601C884.3 601 868.7 601 852.8 601C837 601 821 601 805.2 601C789.3 601 773.7 601 758 601C742.3 601 726.7 601 710.8 601C695 601 679 601 663.2 601C647.3 601 631.7 601 615.8 601C600 601 584 601 568.2 601C552.3 601 536.7 601 521 601C505.3 601 489.7 601 473.8 601C458 601 442 601 426.2 601C410.3 601 394.7 601 379 601C363.3 601 347.7 601 331.8 601C316 601 300 601 284.2 601C268.3 601 252.7 601 236.8 601C221 601 205 601 189.2 601C173.3 601 157.7 601 142 601C126.3 601 110.7 601 94.8 601C79 601 63 601 47.2 601C31.3 601 15.7 601 7.8 601L0 601Z" fill="#1d74f6"></path><path d="M0 586L7.8 585.8C15.7 585.7 31.3 585.3 47.2 585C63 584.7 79 584.3 94.8 584.2C110.7 584 126.3 584 142 584.2C157.7 584.3 173.3 584.7 189.2 584.8C205 585 221 585 236.8 584.7C252.7 584.3 268.3 583.7 284.2 583.7C300 583.7 316 584.3 331.8 584.7C347.7 585 363.3 585 379 584.8C394.7 584.7 410.3 584.3 426.2 584.2C442 584 458 584 473.8 584C489.7 584 505.3 584 521 584.3C536.7 584.7 552.3 585.3 568.2 585.7C584 586 600 586 615.8 585.8C631.7 585.7 647.3 585.3 663.2 585.2C679 585 695 585 710.8 585.2C726.7 585.3 742.3 585.7 758 585.8C773.7 586 789.3 586 805.2 586C821 586 837 586 852.8 585.7C868.7 585.3 884.3 584.7 892.2 584.3L900 584L900 601L892.2 601C884.3 601 868.7 601 852.8 601C837 601 821 601 805.2 601C789.3 601 773.7 601 758 601C742.3 601 726.7 601 710.8 601C695 601 679 601 663.2 601C647.3 601 631.7 601 615.8 601C600 601 584 601 568.2 601C552.3 601 536.7 601 521 601C505.3 601 489.7 601 473.8 601C458 601 442 601 426.2 601C410.3 601 394.7 601 379 601C363.3 601 347.7 601 331.8 601C316 601 300 601 284.2 601C268.3 601 252.7 601 236.8 601C221 601 205 601 189.2 601C173.3 601 157.7 601 142 601C126.3 601 110.7 601 94.8 601C79 601 63 601 47.2 601C31.3 601 15.7 601 7.8 601L0 601Z" fill="#1670f7"></path><path d="M0 587L7.8 587.3C15.7 587.7 31.3 588.3 47.2 588.3C63 588.3 79 587.7 94.8 587.5C110.7 587.3 126.3 587.7 142 588C157.7 588.3 173.3 588.7 189.2 588.7C205 588.7 221 588.3 236.8 588.3C252.7 588.3 268.3 588.7 284.2 588.5C300 588.3 316 587.7 331.8 587.3C347.7 587 363.3 587 379 587C394.7 587 410.3 587 426.2 587.2C442 587.3 458 587.7 473.8 587.7C489.7 587.7 505.3 587.3 521 587.5C536.7 587.7 552.3 588.3 568.2 588.7C584 589 600 589 615.8 588.7C631.7 588.3 647.3 587.7 663.2 587.7C679 587.7 695 588.3 710.8 588.3C726.7 588.3 742.3 587.7 758 587.7C773.7 587.7 789.3 588.3 805.2 588.7C821 589 837 589 852.8 588.8C868.7 588.7 884.3 588.3 892.2 588.2L900 588L900 601L892.2 601C884.3 601 868.7 601 852.8 601C837 601 821 601 805.2 601C789.3 601 773.7 601 758 601C742.3 601 726.7 601 710.8 601C695 601 679 601 663.2 601C647.3 601 631.7 601 615.8 601C600 601 584 601 568.2 601C552.3 601 536.7 601 521 601C505.3 601 489.7 601 473.8 601C458 601 442 601 426.2 601C410.3 601 394.7 601 379 601C363.3 601 347.7 601 331.8 601C316 601 300 601 284.2 601C268.3 601 252.7 601 236.8 601C221 601 205 601 189.2 601C173.3 601 157.7 601 142 601C126.3 601 110.7 601 94.8 601C79 601 63 601 47.2 601C31.3 601 15.7 601 7.8 601L0 601Z" fill="#0e6cf8"></path><path d="M0 591L7.8 590.8C15.7 590.7 31.3 590.3 47.2 590.3C63 590.3 79 590.7 94.8 590.7C110.7 590.7 126.3 590.3 142 590.5C157.7 590.7 173.3 591.3 189.2 591.7C205 592 221 592 236.8 591.7C252.7 591.3 268.3 590.7 284.2 590.3C300 590 316 590 331.8 590.3C347.7 590.7 363.3 591.3 379 591.5C394.7 591.7 410.3 591.3 426.2 591C442 590.7 458 590.3 473.8 590.3C489.7 590.3 505.3 590.7 521 590.8C536.7 591 552.3 591 568.2 591.2C584 591.3 600 591.7 615.8 591.7C631.7 591.7 647.3 591.3 663.2 591.2C679 591 695 591 710.8 591C726.7 591 742.3 591 758 591.2C773.7 591.3 789.3 591.7 805.2 591.5C821 591.3 837 590.7 852.8 590.7C868.7 590.7 884.3 591.3 892.2 591.7L900 592L900 601L892.2 601C884.3 601 868.7 601 852.8 601C837 601 821 601 805.2 601C789.3 601 773.7 601 758 601C742.3 601 726.7 601 710.8 601C695 601 679 601 663.2 601C647.3 601 631.7 601 615.8 601C600 601 584 601 568.2 601C552.3 601 536.7 601 521 601C505.3 601 489.7 601 473.8 601C458 601 442 601 426.2 601C410.3 601 394.7 601 379 601C363.3 601 347.7 601 331.8 601C316 601 300 601 284.2 601C268.3 601 252.7 601 236.8 601C221 601 205 601 189.2 601C173.3 601 157.7 601 142 601C126.3 601 110.7 601 94.8 601C79 601 63 601 47.2 601C31.3 601 15.7 601 7.8 601L0 601Z" fill="#0668f8"></path><path d="M0 595L7.8 594.8C15.7 594.7 31.3 594.3 47.2 594.3C63 594.3 79 594.7 94.8 594.7C110.7 594.7 126.3 594.3 142 594.3C157.7 594.3 173.3 594.7 189.2 594.7C205 594.7 221 594.3 236.8 594.2C252.7 594 268.3 594 284.2 594.2C300 594.3 316 594.7 331.8 594.7C347.7 594.7 363.3 594.3 379 594.2C394.7 594 410.3 594 426.2 594.2C442 594.3 458 594.7 473.8 594.8C489.7 595 505.3 595 521 594.8C536.7 594.7 552.3 594.3 568.2 594.2C584 594 600 594 615.8 594C631.7 594 647.3 594 663.2 594C679 594 695 594 710.8 594.2C726.7 594.3 742.3 594.7 758 594.7C773.7 594.7 789.3 594.3 805.2 594.2C821 594 837 594 852.8 594C868.7 594 884.3 594 892.2 594L900 594L900 601L892.2 601C884.3 601 868.7 601 852.8 601C837 601 821 601 805.2 601C789.3 601 773.7 601 758 601C742.3 601 726.7 601 710.8 601C695 601 679 601 663.2 601C647.3 601 631.7 601 615.8 601C600 601 584 601 568.2 601C552.3 601 536.7 601 521 601C505.3 601 489.7 601 473.8 601C458 601 442 601 426.2 601C410.3 601 394.7 601 379 601C363.3 601 347.7 601 331.8 601C316 601 300 601 284.2 601C268.3 601 252.7 601 236.8 601C221 601 205 601 189.2 601C173.3 601 157.7 601 142 601C126.3 601 110.7 601 94.8 601C79 601 63 601 47.2 601C31.3 601 15.7 601 7.8 601L0 601Z" fill="#0064f9"></path></svg>