<svg id="visual" viewBox="0 0 900 600" width="900" height="600" xmlns="http://www.w3.org/2000/svg" xmlns:xlink="http://www.w3.org/1999/xlink" version="1.1"><path d="M0 462L16.7 455.2C33.3 448.3 66.7 434.7 100 436.5C133.3 438.3 166.7 455.7 200 461.3C233.3 467 266.7 461 300 460.5C333.3 460 366.7 465 400 464C433.3 463 466.7 456 500 454.5C533.3 453 566.7 457 600 459.2C633.3 461.3 666.7 461.7 700 466.5C733.3 471.3 766.7 480.7 800 478C833.3 475.3 866.7 460.7 883.3 453.3L900 446L900 601L883.3 601C866.7 601 833.3 601 800 601C766.7 601 733.3 601 700 601C666.7 601 633.3 601 600 601C566.7 601 533.3 601 500 601C466.7 601 433.3 601 400 601C366.7 601 333.3 601 300 601C266.7 601 233.3 601 200 601C166.7 601 133.3 601 100 601C66.7 601 33.3 601 16.7 601L0 601Z" fill="#2e2727"></path><path d="M0 511L16.7 506.8C33.3 502.7 66.7 494.3 100 488.2C133.3 482 166.7 478 200 477.5C233.3 477 266.7 480 300 481.3C333.3 482.7 366.7 482.3 400 486.3C433.3 490.3 466.7 498.7 500 502.7C533.3 506.7 566.7 506.3 600 504.8C633.3 503.3 666.7 500.7 700 497C733.3 493.3 766.7 488.7 800 490.2C833.3 491.7 866.7 499.3 883.3 503.2L900 507L900 601L883.3 601C866.7 601 833.3 601 800 601C766.7 601 733.3 601 700 601C666.7 601 633.3 601 600 601C566.7 601 533.3 601 500 601C466.7 601 433.3 601 400 601C366.7 601 333.3 601 300 601C266.7 601 233.3 601 200 601C166.7 601 133.3 601 100 601C66.7 601 33.3 601 16.7 601L0 601Z" fill="#867d74"></path><path d="M0 546L16.7 546.2C33.3 546.3 66.7 546.7 100 544C133.3 541.3 166.7 535.7 200 533.3C233.3 531 266.7 532 300 532.8C333.3 533.7 366.7 534.3 400 539C433.3 543.7 466.7 552.3 500 555.2C533.3 558 566.7 555 600 550.3C633.3 545.7 666.7 539.3 700 538.2C733.3 537 766.7 541 800 541.8C833.3 542.7 866.7 540.3 883.3 539.2L900 538L900 601L883.3 601C866.7 601 833.3 601 800 601C766.7 601 733.3 601 700 601C666.7 601 633.3 601 600 601C566.7 601 533.3 601 500 601C466.7 601 433.3 601 400 601C366.7 601 333.3 601 300 601C266.7 601 233.3 601 200 601C166.7 601 133.3 601 100 601C66.7 601 33.3 601 16.7 601L0 601Z" fill="#dee3d2"></path></svg>